<svg width="59" height="56" viewBox="0 0 59 56" fill="none" xmlns="http://www.w3.org/2000/svg">
<path fill-rule="evenodd" clip-rule="evenodd" d="M41.353 20.0233C42.6598 21.5992 43.6465 23.4497 44.2146 25.4738L58.7408 25.4738C57.9206 19.5397 55.3035 14.1769 51.4547 9.94996L41.353 20.0233Z" fill="#428ED3"/>
<path fill-rule="evenodd" clip-rule="evenodd" d="M37.5651 16.7616L47.7954 6.56003C43.464 3.1864 38.1524 1.00621 32.3577 0.516298L32.3577 14.8322C34.2367 15.1479 35.9952 15.8137 37.5651 16.7616Z" fill="#428ED3"/>
<path fill-rule="evenodd" clip-rule="evenodd" d="M27.3667 14.8322L27.3667 0.516314C13.7684 1.66621 2.83024 12.1226 0.983256 25.4737C0.802225 26.7844 0.708495 28.1229 0.708495 29.483C0.708495 29.8069 0.713735 30.129 0.724213 30.4506C0.932603 36.82 3.19636 42.6704 6.8752 47.3652C7.90318 48.6758 9.04116 49.8971 10.2746 51.0139C12.2462 52.7977 14.4628 54.3162 16.8692 55.5131L18.0165 52.2172C18.882 49.7317 20.7913 47.5457 24.1838 47.5457L35.5416 47.5457C38.934 47.5457 40.8445 49.7328 41.7083 52.2172L42.8556 55.5131C52.1627 50.8839 58.6397 41.4398 59 30.4506L44.7317 30.4506C44.2317 38.2055 37.7652 44.3421 29.8621 44.3421C26.2578 44.3421 22.9521 43.0657 20.3751 40.9418C19.0835 39.8772 17.9757 38.6008 17.1049 37.1647C15.9017 35.1825 15.1503 32.8966 14.9925 30.4506C14.9716 30.1308 14.9616 29.8086 14.9616 29.483C14.9616 28.0939 15.1526 26.7496 15.5106 25.4737C17.0467 19.9936 21.6546 15.7922 27.3667 14.8322Z" fill="#283354"/>
</svg>
